<svg width="30" height="30" viewBox="0 0 30 30" fill="none" xmlns="http://www.w3.org/2000/svg">
<g clip-path="url(#clip0_1204_2305)">
<path d="M9.47363 19.977L3.41972 17.7505C3.24171 17.6848 3.08812 17.5661 2.97963 17.4104C2.87115 17.2547 2.81299 17.0695 2.81299 16.8798C2.81299 16.69 2.87115 16.5048 2.97963 16.3492C3.08812 16.1935 3.24171 16.0748 3.41972 16.0091L9.47363 13.7825C9.59968 13.7364 9.71416 13.6633 9.80908 13.5684C9.904 13.4734 9.97708 13.359 10.0232 13.2329L12.2498 7.179C12.3155 7.00099 12.4342 6.84739 12.5899 6.73891C12.7456 6.63043 12.9308 6.57227 13.1205 6.57227C13.3103 6.57227 13.4954 6.63043 13.6511 6.73891C13.8068 6.84739 13.9255 7.00099 13.9912 7.179L16.2178 13.2329C16.2639 13.359 16.337 13.4734 16.4319 13.5684C16.5269 13.6633 16.6413 13.7364 16.7674 13.7825L22.8213 16.0091C22.9993 16.0748 23.1529 16.1935 23.2614 16.3492C23.3699 16.5048 23.428 16.69 23.428 16.8798C23.428 17.0695 23.3699 17.2547 23.2614 17.4104C23.1529 17.5661 22.9993 17.6848 22.8213 17.7505L16.7674 19.977C16.6413 20.0232 16.5269 20.0963 16.4319 20.1912C16.337 20.2861 16.2639 20.4006 16.2178 20.5267L13.9912 26.5806C13.9255 26.7586 13.8068 26.9122 13.6511 27.0207C13.4954 27.1291 13.3103 27.1873 13.1205 27.1873C12.9308 27.1873 12.7456 27.1291 12.5899 27.0207C12.4342 26.9122 12.3155 26.7586 12.2498 26.5806L10.0232 20.5267C9.97708 20.4006 9.904 20.2861 9.80908 20.1912C9.71416 20.0963 9.59968 20.0232 9.47363 19.977Z" stroke="white" stroke-width="1.5" stroke-linecap="round" stroke-linejoin="round"/>
<path d="M20.625 1.875V7.5" stroke="white" stroke-width="1.5" stroke-linecap="round" stroke-linejoin="round"/>
<path d="M26.25 8.4375V12.1875" stroke="white" stroke-width="1.5" stroke-linecap="round" stroke-linejoin="round"/>
<path d="M17.8125 4.6875H23.4375" stroke="white" stroke-width="1.5" stroke-linecap="round" stroke-linejoin="round"/>
<path d="M24.375 10.3125H28.125" stroke="white" stroke-width="1.5" stroke-linecap="round" stroke-linejoin="round"/>
</g>
<defs>
<clipPath id="clip0_1204_2305">
<rect width="30" height="30" fill="white"/>
</clipPath>
</defs>
</svg>
