<svg width="32" height="32" viewBox="0 0 32 32" fill="none" xmlns="http://www.w3.org/2000/svg">
<rect x="0.929688" y="1.74219" width="29.3906" height="29.3906" rx="14.6953" fill="#667185"/>
<rect x="0.929688" y="1.74219" width="29.3906" height="29.3906" rx="14.6953" stroke="white" stroke-width="1.54688"/>
<path d="M15.625 14.8906C14.3435 14.8906 13.3047 15.9295 13.3047 17.2109C13.3047 18.4924 14.3435 19.5312 15.625 19.5312C16.9065 19.5312 17.9453 18.4924 17.9453 17.2109C17.9453 15.9295 16.9065 14.8906 15.625 14.8906Z" fill="white"/>
<path fill-rule="evenodd" clip-rule="evenodd" d="M14.2658 9.86328H16.9842C17.5996 9.86328 18.1898 10.1077 18.6249 10.5429L19.1554 11.0734C19.3776 11.2956 19.6426 11.4703 19.9344 11.587L21.9008 12.3736C22.7817 12.726 23.3594 13.5792 23.3594 14.528V20.6914C23.3594 21.9729 22.3205 23.0117 21.0391 23.0117H10.2109C8.92946 23.0117 7.89062 21.9729 7.89062 20.6914V14.528C7.89062 13.5792 8.46827 12.726 9.3492 12.3736L11.3156 11.587C11.6074 11.4703 11.8724 11.2956 12.0946 11.0734L12.6251 10.5429C13.0602 10.1077 13.6504 9.86328 14.2658 9.86328ZM11.7578 17.2109C11.7578 15.0751 13.4892 13.3438 15.625 13.3438C17.7608 13.3438 19.4922 15.0751 19.4922 17.2109C19.4922 19.3467 17.7608 21.0781 15.625 21.0781C13.4892 21.0781 11.7578 19.3467 11.7578 17.2109ZM18.6009 14.2659C18.911 14.3693 19.1543 14.6126 19.2577 14.9227C19.3629 15.2383 19.8092 15.2383 19.9144 14.9227C20.0178 14.6126 20.2611 14.3693 20.5711 14.2659C20.8867 14.1608 20.8867 13.7144 20.5711 13.6092C20.2611 13.5058 20.0178 13.2625 19.9144 12.9525C19.8092 12.6369 19.3629 12.6369 19.2577 12.9525C19.1543 13.2625 18.911 13.5058 18.6009 13.6092C18.2854 13.7144 18.2854 14.1608 18.6009 14.2659Z" fill="white"/>
</svg>
