<svg width="18" height="16" viewBox="0 0 18 16" fill="none" xmlns="http://www.w3.org/2000/svg">
<path d="M17.9534 5.8119L15.1781 15.0498C15.1502 15.143 15.1034 15.228 15.0411 15.2988C14.9787 15.3695 14.9026 15.4241 14.8182 15.4585C14.7338 15.4929 14.6434 15.5062 14.5537 15.4974C14.4639 15.4886 14.3771 15.4579 14.2998 15.4077C14.2825 15.3963 12.3646 14.1956 8.99824 14.1956C5.6319 14.1956 3.71395 15.3963 3.6952 15.4085C3.61787 15.4583 3.53125 15.4885 3.44173 15.497C3.3522 15.5055 3.26207 15.492 3.17797 15.4576C3.09388 15.4232 3.01797 15.3687 2.95586 15.2981C2.89375 15.2275 2.84702 15.1427 2.81911 15.0498L0.0453298 5.80946C-0.010558 5.62448 -0.0148647 5.42567 0.0329515 5.23805C0.0807677 5.05042 0.178571 4.88234 0.31406 4.75497C0.44955 4.62759 0.616673 4.5466 0.794411 4.52218C0.972148 4.49776 1.15256 4.531 1.31296 4.61773L5.07759 6.65557L8.22191 0.977326C8.30274 0.831683 8.41682 0.711205 8.5531 0.627575C8.68938 0.543945 8.84323 0.5 8.99974 0.5C9.15625 0.5 9.3101 0.543945 9.44638 0.627575C9.58266 0.711205 9.69674 0.831683 9.77757 0.977326L12.9219 6.65557L16.688 4.61773C16.8486 4.53087 17.0293 4.49768 17.2072 4.52233C17.3851 4.54698 17.5523 4.62838 17.6877 4.75624C17.8231 4.8841 17.9206 5.05269 17.9679 5.24072C18.0152 5.42875 18.0101 5.6278 17.9534 5.81272V5.8119Z" fill="#FEF6E7"/>
</svg>
