<svg width="55" height="56" viewBox="0 0 55 56" fill="none" xmlns="http://www.w3.org/2000/svg">
<g clip-path="url(#clip0_2745_2629)">
<path d="M14.5 35.0001V32.1413C14.5 24.9563 20.2687 19.0251 27.4537 19.0001C29.1648 18.994 30.8603 19.3258 32.4428 19.9763C34.0254 20.6269 35.464 21.5835 36.6761 22.7913C37.8881 23.9991 38.8498 25.4342 39.506 27.0145C40.1622 28.5947 40.5 30.289 40.5 32.0001V35.0001C40.5 35.2653 40.3946 35.5197 40.2071 35.7072C40.0196 35.8947 39.7652 36.0001 39.5 36.0001H15.5C15.2348 36.0001 14.9804 35.8947 14.7929 35.7072C14.6054 35.5197 14.5 35.2653 14.5 35.0001Z" stroke="#344054" stroke-width="1.5" stroke-linecap="round" stroke-linejoin="round"/>
<path d="M27.5 19V23" stroke="#344054" stroke-width="1.5" stroke-linecap="round" stroke-linejoin="round"/>
<path d="M24.5 36L32.5 25" stroke="#344054" stroke-width="1.5" stroke-linecap="round" stroke-linejoin="round"/>
<path d="M36.5 30H40.3475" stroke="#344054" stroke-width="1.5" stroke-linecap="round" stroke-linejoin="round"/>
<path d="M14.6738 30H18.5001" stroke="#344054" stroke-width="1.5" stroke-linecap="round" stroke-linejoin="round"/>
</g>
<defs>
<clipPath id="clip0_2745_2629">
<rect width="32" height="32" fill="white" transform="translate(11.5 12)"/>
</clipPath>
</defs>
</svg>
