<svg width="24" height="24" viewBox="0 0 24 24" fill="none" xmlns="http://www.w3.org/2000/svg">
<g clip-path="url(#clip0_1549_6809)">
<path d="M7.57876 15.9816L2.73563 14.2004C2.59322 14.1478 2.47035 14.0529 2.38356 13.9283C2.29677 13.8038 2.25024 13.6556 2.25024 13.5038C2.25024 13.352 2.29677 13.2039 2.38356 13.0793C2.47035 12.9548 2.59322 12.8598 2.73563 12.8073L7.57876 11.026C7.6796 10.9891 7.77118 10.9306 7.84711 10.8547C7.92305 10.7787 7.98152 10.6872 8.01844 10.5863L9.79969 5.7432C9.85226 5.60079 9.94721 5.47791 10.0718 5.39113C10.1963 5.30434 10.3445 5.25781 10.4963 5.25781C10.6481 5.25781 10.7962 5.30434 10.9208 5.39113C11.0453 5.47791 11.1403 5.60079 11.1928 5.7432L12.9741 10.5863C13.011 10.6872 13.0695 10.7787 13.1454 10.8547C13.2213 10.9306 13.3129 10.9891 13.4138 11.026L18.2569 12.8073C18.3993 12.8598 18.5222 12.9548 18.609 13.0793C18.6957 13.2039 18.7423 13.352 18.7423 13.5038C18.7423 13.6556 18.6957 13.8038 18.609 13.9283C18.5222 14.0529 18.3993 14.1478 18.2569 14.2004L13.4138 15.9816C13.3129 16.0186 13.2213 16.077 13.1454 16.153C13.0695 16.2289 13.011 16.3205 12.9741 16.4213L11.1928 21.2645C11.1403 21.4069 11.0453 21.5297 10.9208 21.6165C10.7962 21.7033 10.6481 21.7498 10.4963 21.7498C10.3445 21.7498 10.1963 21.7033 10.0718 21.6165C9.94721 21.5297 9.85226 21.4069 9.79969 21.2645L8.01844 16.4213C7.98152 16.3205 7.92305 16.2289 7.84711 16.153C7.77118 16.077 7.6796 16.0186 7.57876 15.9816Z" stroke="#F3A218" stroke-linecap="round" stroke-linejoin="round"/>
<path d="M16.5 1.5V6" stroke="#F3A218" stroke-linecap="round" stroke-linejoin="round"/>
<path d="M21 6.75V9.75" stroke="#F3A218" stroke-linecap="round" stroke-linejoin="round"/>
<path d="M14.25 3.75H18.75" stroke="#F3A218" stroke-linecap="round" stroke-linejoin="round"/>
<path d="M19.5 8.25H22.5" stroke="#F3A218" stroke-linecap="round" stroke-linejoin="round"/>
</g>
<defs>
<clipPath id="clip0_1549_6809">
<rect width="24" height="24" fill="white"/>
</clipPath>
</defs>
</svg>
