<svg width="16" height="16" viewBox="0 0 16 16" fill="none" xmlns="http://www.w3.org/2000/svg">
<g clip-path="url(#clip0_1116_2390)">
<path d="M5.05234 10.6543L1.82359 9.46684C1.72865 9.4318 1.64673 9.3685 1.58888 9.28547C1.53102 9.20244 1.5 9.10367 1.5 9.00247C1.5 8.90127 1.53102 8.8025 1.58888 8.71947C1.64673 8.63644 1.72865 8.57314 1.82359 8.53809L5.05234 7.35059C5.11957 7.32598 5.18062 7.287 5.23125 7.23637C5.28187 7.18575 5.32085 7.1247 5.34547 7.05747L6.53297 3.82872C6.56801 3.73378 6.63131 3.65186 6.71434 3.594C6.79737 3.53615 6.89614 3.50513 6.99734 3.50513C7.09854 3.50513 7.19731 3.53615 7.28034 3.594C7.36337 3.65186 7.42667 3.73378 7.46172 3.82872L8.64922 7.05747C8.67383 7.1247 8.71281 7.18575 8.76344 7.23637C8.81406 7.287 8.87511 7.32598 8.94234 7.35059L12.1711 8.53809C12.266 8.57314 12.3479 8.63644 12.4058 8.71947C12.4637 8.8025 12.4947 8.90127 12.4947 9.00247C12.4947 9.10367 12.4637 9.20244 12.4058 9.28547C12.3479 9.3685 12.266 9.4318 12.1711 9.46684L8.94234 10.6543C8.87511 10.679 8.81406 10.7179 8.76344 10.7686C8.71281 10.8192 8.67383 10.8802 8.64922 10.9475L7.46172 14.1762C7.42667 14.2712 7.36337 14.3531 7.28034 14.4109C7.19731 14.4688 7.09854 14.4998 6.99734 14.4998C6.89614 14.4998 6.79737 14.4688 6.71434 14.4109C6.63131 14.3531 6.56801 14.2712 6.53297 14.1762L5.34547 10.9475C5.32085 10.8802 5.28187 10.8192 5.23125 10.7686C5.18062 10.7179 5.11957 10.679 5.05234 10.6543Z" stroke="#98A2B3" stroke-linecap="round" stroke-linejoin="round"/>
<path d="M11 1V4" stroke="#98A2B3" stroke-linecap="round" stroke-linejoin="round"/>
<path d="M14 4.5V6.5" stroke="#98A2B3" stroke-linecap="round" stroke-linejoin="round"/>
<path d="M9.5 2.5H12.5" stroke="#98A2B3" stroke-linecap="round" stroke-linejoin="round"/>
<path d="M13 5.5H15" stroke="#98A2B3" stroke-linecap="round" stroke-linejoin="round"/>
</g>
<defs>
<clipPath id="clip0_1116_2390">
<rect width="16" height="16" fill="white"/>
</clipPath>
</defs>
</svg>
