<svg width="96" height="25" viewBox="0 0 96 25" fill="none" xmlns="http://www.w3.org/2000/svg">
<path d="M0.40625 1.15625H7.20312C10.151 1.15625 12.375 1.58333 13.875 2.4375C15.375 3.29167 16.125 4.76562 16.125 6.85938C16.125 7.73438 15.9688 8.52604 15.6562 9.23438C15.3542 9.93229 14.9115 10.5104 14.3281 10.9688C13.7448 11.4167 13.026 11.7188 12.1719 11.875V12.0312C13.0573 12.1875 13.8438 12.4635 14.5312 12.8594C15.2292 13.2552 15.776 13.8229 16.1719 14.5625C16.5781 15.3021 16.7812 16.2604 16.7812 17.4375C16.7812 18.8333 16.4479 20.0208 15.7812 21C15.125 21.9792 14.1823 22.724 12.9531 23.2344C11.7344 23.7448 10.2865 24 8.60938 24H0.40625V1.15625ZM4.15625 10.5781H7.75C9.44792 10.5781 10.625 10.3021 11.2812 9.75C11.9375 9.19792 12.2656 8.39062 12.2656 7.32812C12.2656 6.24479 11.875 5.46354 11.0938 4.98438C10.3229 4.50521 9.09375 4.26562 7.40625 4.26562H4.15625V10.5781ZM4.15625 13.6094V20.8594H8.10938C9.85938 20.8594 11.0885 20.5208 11.7969 19.8438C12.5052 19.1667 12.8594 18.25 12.8594 17.0938C12.8594 16.3854 12.6979 15.7708 12.375 15.25C12.0625 14.7292 11.5469 14.3281 10.8281 14.0469C10.1094 13.7552 9.14062 13.6094 7.92188 13.6094H4.15625ZM28.0156 6.375C29.5573 6.375 30.8802 6.69271 31.9844 7.32812C33.0885 7.96354 33.9375 8.86458 34.5312 10.0312C35.125 11.1979 35.4219 12.5938 35.4219 14.2188V16.1875H23.875C23.9167 17.8646 24.3646 19.1562 25.2188 20.0625C26.0833 20.9688 27.2917 21.4219 28.8438 21.4219C29.9479 21.4219 30.9375 21.3177 31.8125 21.1094C32.6979 20.8906 33.6094 20.5729 34.5469 20.1562V23.1406C33.6823 23.5469 32.8021 23.8438 31.9062 24.0312C31.0104 24.2188 29.9375 24.3125 28.6875 24.3125C26.9896 24.3125 25.4948 23.9844 24.2031 23.3281C22.9219 22.6615 21.9167 21.6719 21.1875 20.3594C20.4688 19.0469 20.1094 17.4167 20.1094 15.4688C20.1094 13.5312 20.4375 11.8854 21.0938 10.5312C21.75 9.17708 22.6719 8.14583 23.8594 7.4375C25.0469 6.72917 26.4323 6.375 28.0156 6.375ZM28.0156 9.14062C26.8594 9.14062 25.9219 9.51562 25.2031 10.2656C24.4948 11.0156 24.0781 12.1146 23.9531 13.5625H31.8281C31.8177 12.6979 31.6719 11.9323 31.3906 11.2656C31.1198 10.599 30.7031 10.0781 30.1406 9.70312C29.5885 9.32812 28.8802 9.14062 28.0156 9.14062ZM46.4531 6.375C47.9948 6.375 49.3177 6.69271 50.4219 7.32812C51.526 7.96354 52.375 8.86458 52.9688 10.0312C53.5625 11.1979 53.8594 12.5938 53.8594 14.2188V16.1875H42.3125C42.3542 17.8646 42.8021 19.1562 43.6562 20.0625C44.5208 20.9688 45.7292 21.4219 47.2812 21.4219C48.3854 21.4219 49.375 21.3177 50.25 21.1094C51.1354 20.8906 52.0469 20.5729 52.9844 20.1562V23.1406C52.1198 23.5469 51.2396 23.8438 50.3438 24.0312C49.4479 24.2188 48.375 24.3125 47.125 24.3125C45.4271 24.3125 43.9323 23.9844 42.6406 23.3281C41.3594 22.6615 40.3542 21.6719 39.625 20.3594C38.9062 19.0469 38.5469 17.4167 38.5469 15.4688C38.5469 13.5312 38.875 11.8854 39.5312 10.5312C40.1875 9.17708 41.1094 8.14583 42.2969 7.4375C43.4844 6.72917 44.8698 6.375 46.4531 6.375ZM46.4531 9.14062C45.2969 9.14062 44.3594 9.51562 43.6406 10.2656C42.9323 11.0156 42.5156 12.1146 42.3906 13.5625H50.2656C50.2552 12.6979 50.1094 11.9323 49.8281 11.2656C49.5573 10.599 49.1406 10.0781 48.5781 9.70312C48.026 9.32812 47.3177 9.14062 46.4531 9.14062ZM68.1094 4.01562C67.0156 4.01562 66.0365 4.21354 65.1719 4.60938C64.3177 5.00521 63.5938 5.57812 63 6.32812C62.4062 7.06771 61.9531 7.96875 61.6406 9.03125C61.3281 10.0833 61.1719 11.2708 61.1719 12.5938C61.1719 14.3646 61.4219 15.8906 61.9219 17.1719C62.4219 18.4427 63.1823 19.4219 64.2031 20.1094C65.224 20.7865 66.5156 21.125 68.0781 21.125C69.0469 21.125 69.9896 21.0312 70.9062 20.8438C71.8229 20.6562 72.7708 20.401 73.75 20.0781V23.2656C72.8229 23.6302 71.8854 23.8958 70.9375 24.0625C69.9896 24.2292 68.8958 24.3125 67.6562 24.3125C65.3229 24.3125 63.3854 23.8281 61.8438 22.8594C60.3125 21.8906 59.1667 20.526 58.4062 18.7656C57.6562 17.0052 57.2812 14.9427 57.2812 12.5781C57.2812 10.849 57.5208 9.26562 58 7.82812C58.4792 6.39062 59.1771 5.15104 60.0938 4.10938C61.0104 3.05729 62.1406 2.25 63.4844 1.6875C64.8385 1.11458 66.3854 0.828125 68.125 0.828125C69.2708 0.828125 70.3958 0.958333 71.5 1.21875C72.6146 1.46875 73.6458 1.82812 74.5938 2.29688L73.2812 5.39062C72.4896 5.01562 71.6615 4.69271 70.7969 4.42188C69.9323 4.15104 69.0365 4.01562 68.1094 4.01562ZM95.5938 1.15625L87.6094 24H83.6406L75.6562 1.15625H79.5L84.3125 15.4688C84.4583 15.8854 84.6146 16.3906 84.7812 16.9844C84.9583 17.5781 85.1198 18.1771 85.2656 18.7812C85.4219 19.3854 85.5417 19.9219 85.625 20.3906C85.7083 19.9219 85.8229 19.3854 85.9688 18.7812C86.125 18.1771 86.2865 17.5781 86.4531 16.9844C86.6198 16.3906 86.776 15.8802 86.9219 15.4531L91.75 1.15625H95.5938Z" fill="black"/>
</svg>
