<svg width="32" height="22" viewBox="0 0 32 22" fill="none" xmlns="http://www.w3.org/2000/svg">
<rect x="0.5" y="0.5" width="31" height="21" rx="4.5" stroke="#ECEFF2"/>
<rect x="1" y="1" width="30" height="20" rx="4" fill="#F9FAFB"/>
<path fill-rule="evenodd" clip-rule="evenodd" d="M16.2141 15.2975C15.1928 16.1544 13.8679 16.6717 12.4202 16.6717C9.18995 16.6717 6.57129 14.0962 6.57129 10.9192C6.57129 7.74222 9.18995 5.16675 12.4202 5.16675C13.8679 5.16675 15.1928 5.68404 16.2141 6.54094C17.2355 5.68404 18.5604 5.16675 20.0081 5.16675C23.2383 5.16675 25.857 7.74222 25.857 10.9192C25.857 14.0962 23.2383 16.6717 20.0081 16.6717C18.5604 16.6717 17.2355 16.1544 16.2141 15.2975Z" fill="#ED0006"/>
<path fill-rule="evenodd" clip-rule="evenodd" d="M16.2139 15.2975C17.4715 14.2424 18.2689 12.6724 18.2689 10.9192C18.2689 9.16605 17.4715 7.59605 16.2139 6.54094C17.2352 5.68404 18.5601 5.16675 20.0078 5.16675C23.2381 5.16675 25.8567 7.74222 25.8567 10.9192C25.8567 14.0962 23.2381 16.6717 20.0078 16.6717C18.5601 16.6717 17.2352 16.1544 16.2139 15.2975Z" fill="#F9A000"/>
<path fill-rule="evenodd" clip-rule="evenodd" d="M16.2142 15.2976C14.9566 14.2425 14.1592 12.6725 14.1592 10.9193C14.1592 9.16612 14.9566 7.59613 16.2142 6.54102C17.4718 7.59613 18.2692 9.16612 18.2692 10.9193C18.2692 12.6725 17.4718 14.2425 16.2142 15.2976Z" fill="#FF5E00"/>
</svg>
