<svg width="80" height="80" viewBox="0 0 80 80" fill="none" xmlns="http://www.w3.org/2000/svg">
<g clip-path="url(#clip0_2582_1771)">
<path opacity="0.2" d="M40 70C56.5685 70 70 56.5685 70 40C70 23.4315 56.5685 10 40 10C23.4315 10 10 23.4315 10 40C10 56.5685 23.4315 70 40 70Z" fill="#98A2B3"/>
<path d="M40 70C56.5685 70 70 56.5685 70 40C70 23.4315 56.5685 10 40 10C23.4315 10 10 23.4315 10 40C10 56.5685 23.4315 70 40 70Z" stroke="#D0D5DD" stroke-width="2" stroke-miterlimit="10"/>
<path d="M27.5 40H52.5" stroke="#98A2B3" stroke-width="2" stroke-linecap="round" stroke-linejoin="round"/>
<path d="M40 27.5V52.5" stroke="#98A2B3" stroke-width="2" stroke-linecap="round" stroke-linejoin="round"/>
</g>
<defs>
<clipPath id="clip0_2582_1771">
<rect width="80" height="80" fill="white"/>
</clipPath>
</defs>
</svg>
