<svg width="20" height="21" viewBox="0 0 20 21" fill="none" xmlns="http://www.w3.org/2000/svg">
<path d="M9.16699 2.16675C13.307 2.16675 16.667 5.52675 16.667 9.66675C16.667 13.8067 13.307 17.1667 9.16699 17.1667C5.02699 17.1667 1.66699 13.8067 1.66699 9.66675C1.66699 5.52675 5.02699 2.16675 9.16699 2.16675ZM9.16699 15.5001C12.3899 15.5001 15.0003 12.8897 15.0003 9.66675C15.0003 6.44383 12.3899 3.83341 9.16699 3.83341C5.94408 3.83341 3.33366 6.44383 3.33366 9.66675C3.33366 12.8897 5.94408 15.5001 9.16699 15.5001ZM16.2381 15.5593L18.5951 17.9163L17.4166 19.0948L15.0596 16.7378L16.2381 15.5593Z" fill="#959BA4"/>
</svg>
