<svg width="33" height="32" viewBox="0 0 33 32" fill="none" xmlns="http://www.w3.org/2000/svg">
<g clip-path="url(#clip0_2761_529)">
<path d="M21.5 28H7.5C7.23478 28 6.98043 27.8946 6.79289 27.7071C6.60536 27.5196 6.5 27.2652 6.5 27V9C6.5 8.73478 6.60536 8.48043 6.79289 8.29289C6.98043 8.10536 7.23478 8 7.5 8H17.5L22.5 13V27C22.5 27.2652 22.3946 27.5196 22.2071 27.7071C22.0196 27.8946 21.7652 28 21.5 28Z" stroke="#344054" stroke-width="1.5" stroke-linecap="round" stroke-linejoin="round"/>
<path d="M10.5 8V5C10.5 4.73478 10.6054 4.48043 10.7929 4.29289C10.9804 4.10536 11.2348 4 11.5 4H21.5L26.5 9V23C26.5 23.2652 26.3946 23.5196 26.2071 23.7071C26.0196 23.8946 25.7652 24 25.5 24H22.5" stroke="#344054" stroke-width="1.5" stroke-linecap="round" stroke-linejoin="round"/>
<path d="M11.5 19H17.5" stroke="#344054" stroke-width="1.5" stroke-linecap="round" stroke-linejoin="round"/>
<path d="M11.5 23H17.5" stroke="#344054" stroke-width="1.5" stroke-linecap="round" stroke-linejoin="round"/>
</g>
<defs>
<clipPath id="clip0_2761_529">
<rect width="32" height="32" fill="white" transform="translate(0.5)"/>
</clipPath>
</defs>
</svg>
