<svg width="16" height="17" viewBox="0 0 16 17" fill="none" xmlns="http://www.w3.org/2000/svg">
<path d="M7.99967 15.1666C4.31777 15.1666 1.33301 12.1818 1.33301 8.49992C1.33301 4.81802 4.31777 1.83325 7.99967 1.83325C11.6815 1.83325 14.6663 4.81802 14.6663 8.49992C14.6663 12.1818 11.6815 15.1666 7.99967 15.1666ZM7.99967 13.8333C10.9452 13.8333 13.333 11.4455 13.333 8.49992C13.333 5.5544 10.9452 3.16659 7.99967 3.16659C5.05415 3.16659 2.66634 5.5544 2.66634 8.49992C2.66634 11.4455 5.05415 13.8333 7.99967 13.8333ZM8.66634 8.49992H11.333V9.83325H7.33301V5.16658H8.66634V8.49992Z" fill="#4B5563"/>
</svg>
