<svg width="32" height="22" viewBox="0 0 32 22" fill="none" xmlns="http://www.w3.org/2000/svg">
<rect x="0.5" y="0.5" width="31" height="21" rx="4.5" stroke="#ECEFF2"/>
<rect x="1" y="1" width="30" height="20" rx="4" fill="#F9FAFB"/>
<path d="M13.8349 14.4024H12.1387L13.1996 8.02441H14.8958L13.8349 14.4024Z" fill="#00579F"/>
<path d="M19.9838 8.18023C19.6493 8.05118 19.1186 7.90869 18.4624 7.90869C16.7873 7.90869 15.6077 8.77714 15.6005 10.0188C15.5866 10.9348 16.445 11.4436 17.0871 11.7491C17.7434 12.0612 17.9665 12.2649 17.9665 12.5431C17.9598 12.9704 17.4362 13.1674 16.9478 13.1674C16.2706 13.1674 15.9077 13.0658 15.3562 12.8281L15.1329 12.7262L14.8955 14.1579C15.2933 14.3341 16.0263 14.4905 16.7873 14.4974C18.5672 14.4974 19.7259 13.6423 19.7396 12.3192C19.7464 11.5932 19.2931 11.0368 18.3158 10.5822C17.7225 10.2904 17.3592 10.0936 17.3592 9.79502C17.3661 9.52357 17.6665 9.24554 18.3362 9.24554C18.8876 9.23193 19.2928 9.3608 19.5997 9.48975L19.7532 9.55748L19.9838 8.18023Z" fill="#00579F"/>
<path d="M22.2387 12.1429C22.3784 11.7765 22.9159 10.3584 22.9159 10.3584C22.9088 10.372 23.0553 9.98523 23.1391 9.74778L23.2576 10.2973C23.2576 10.2973 23.5788 11.824 23.6486 12.1429C23.3835 12.1429 22.5737 12.1429 22.2387 12.1429ZM24.3325 8.02441H23.0204C22.6158 8.02441 22.3084 8.13967 22.1338 8.5536L19.6143 14.4023H21.3941C21.3941 14.4023 21.6871 13.6151 21.7501 13.4456C21.9454 13.4456 23.6768 13.4456 23.928 13.4456C23.9767 13.6695 24.1304 14.4023 24.1304 14.4023H25.701L24.3325 8.02441Z" fill="#00579F"/>
<path d="M10.7221 8.02441L9.06091 12.3736L8.87938 11.4915C8.57226 10.4737 7.60906 9.36794 6.53418 8.8181L8.05578 14.3956H9.84954L12.5158 8.02441H10.7221Z" fill="#00579F"/>
<path d="M7.51779 8.02441H4.78866L4.76074 8.1533C6.88963 8.68264 8.29956 9.95858 8.87883 11.4922L8.28555 8.56061C8.18788 8.15321 7.88771 8.03785 7.51779 8.02441Z" fill="#FAA61A"/>
</svg>
